<?xml version="1.0" encoding="utf-8"?>
<svg id="master-artboard" viewBox="0 0 1400 980" version="1.1" xmlns="http://www.w3.org/2000/svg" x="0px" y="0px" style="enable-background:new 0 0 1400 980;" width="1400px" height="980px"><g transform="matrix(1.2165186405181887, 0, 0, 1.2165186405181887, 180.92879262123074, -10.427710367011827)"><rect id="ee-background" x="0" y="0" width="838.67724609375" height="805.5774536132812" style="fill: white; fill-opacity: 0; pointer-events: none;"/><g transform="matrix(0.7863754630088806, -0.25068140029907227, 0.25068140029907227, 0.7863754630088806, -2073.3707885742188, -51.614593505859375)"><g><path d=" M 2462.45 1012.029 C 2419.241 1098.997 2431.935 1194.136 2500.501 1297.415 L 2542.177 1364.458 L 2591.1 1435.125 L 2617.374 1469.552 C 2617.265 1453.341 2612.552 1434.531 2603.205 1413.092 L 2565.927 1318.122 L 2524.211 1208.95 L 2490.484 1110.43 L 2462.45 1012.029 Z " fill="rgb(60,196,220)" vector-effect="non-scaling-stroke" stroke-width="1" stroke="rgb(90,201,223)" stroke-linejoin="miter" stroke-linecap="square" stroke-miterlimit="3" transform="matrix(1.0012543048057738, 0.0613159145610687, -0.0613159145610687, 1.0012543048057738, 73.76635257701984, -179.4503866641778)" style="fill: rgb(0, 179, 219);"/><path d=" M 2377.239 1190.436 C 2334.435 1252.208 2392.167 1340.742 2550.282 1455.89 L 2599.205 1485.787 L 2495.017 1347.172 L 2391.735 1207.65 L 2377.239 1190.436 Z " fill="rgb(60,196,220)" vector-effect="non-scaling-stroke" stroke-width="1" stroke="rgb(90,201,223)" stroke-linejoin="miter" stroke-linecap="square" stroke-miterlimit="3" transform="matrix(0.9961728453636168, 0.08740942180156708, -0.08740942180156708, 0.9961728453636168, 124.39760572671935, -233.1360032145526)" style="fill: rgb(0, 179, 219);"/><path d=" M 2336.518 1343.62 L 2346.484 1349.962 L 2592.912 1503.074 L 2557.579 1496.732 C 2379.849 1454.9 2306.172 1403.873 2336.518 1343.62 Z " fill="rgb(60,196,220)" vector-effect="non-scaling-stroke" stroke-width="1" stroke="rgb(90,201,223)" stroke-linejoin="miter" stroke-linecap="square" stroke-miterlimit="3" transform="matrix(0.9855448603630067, 0.1694214791059494, -0.1694214791059494, 0.9855448603630067, 267.09749318203194, -417.25351636497504)" style="fill: rgb(0, 179, 219);"/><path d=" M 2595.472 1554.752 L 2413.369 1573.777 C 2423.736 1607.993 2449.113 1620.083 2489.472 1610.017 C 2539.484 1591.176 2576.035 1572.764 2582.789 1563.811 L 2595.472 1554.752 Z " fill="rgb(60,196,220)" vector-effect="non-scaling-stroke" stroke-width="1" stroke="rgb(90,201,223)" stroke-linejoin="miter" stroke-linecap="square" stroke-miterlimit="3" transform="matrix(0.9805019497871399, 0.19651414453983307, -0.19651414453983307, 0.9805019497871399, 315.9011426956083, -481.1383578690972)" style="stroke: rgb(0, 179, 219); fill: rgb(0, 179, 219);"/><path d=" M 2627.509 1589.565 L 2592.144 1647.706 C 2609.835 1652.698 2622.215 1646.997 2629.261 1630.603 C 2636.184 1613.549 2630.584 1588.962 2632.033 1579.397 L 2627.509 1589.565 Z " fill="rgb(60,196,220)" vector-effect="non-scaling-stroke" stroke-width="1" stroke="rgb(90,201,223)" stroke-linejoin="miter" stroke-linecap="square" stroke-miterlimit="3" transform="matrix(0.6929858326911926, 0.28253474831581116, -0.28253474831581116, 0.6929858326911926, 1221.2490858789256, -214.0894993232459)" style="fill: rgb(0, 179, 219);"/><path d=" M 2567.496 1534.783 C 2524.499 1537.742 2432.42 1541.434 2395.359 1540.219 C 2361.473 1535.113 2344.873 1513.379 2345.529 1474.988 L 2563.872 1523.912 L 2590.146 1531.16 C 2589.594 1531.269 2581.083 1533.848 2567.496 1534.783 Z " fill="rgb(60,196,220)" vector-effect="non-scaling-stroke" stroke-width="1" stroke="rgb(90,201,223)" stroke-linejoin="miter" stroke-linecap="square" stroke-miterlimit="3" transform="matrix(0.9826007485389711, 0.18573877215385437, -0.18573877215385437, 0.9826007485389711, 297.2433652169789, -458.0860229886575)" style="fill: rgb(0, 179, 219);"/><path d="M 2713.970458984375 1193.8253173828125" style="fill: rgb(60, 196, 220); fill-opacity: 1; stroke: rgb(90, 201, 223); stroke-opacity: 1; stroke-width: 1; paint-order: fill;"/><path d="M 2679.53662109375 1218.3402099609375" style="fill: rgb(0, 179, 219); fill-opacity: 1; stroke: rgb(90, 201, 223); stroke-opacity: 1; stroke-width: 1; paint-order: fill;"/></g></g><path d="M 493.55364990234375 591 L 493.55364990234375 503.8800048828125 L 519.6336669921875 503.8800048828125 C 526.45361328125 503.8800048828125 531.503662109375 505.3833312988281 534.7836303710938 508.3900146484375 C 538.0636596679688 511.4033203125 539.70361328125 516.5366821289062 539.70361328125 523.7899780273438 C 539.70361328125 524.010009765625 539.70361328125 524.3200073242188 539.70361328125 524.719970703125 C 539.70361328125 525.9933471679688 539.70361328125 526.9400024414062 539.70361328125 527.5599975585938 C 539.70361328125 528.1799926757812 539.6403198242188 529.1466674804688 539.513671875 530.4600219726562 C 539.386962890625 531.7733154296875 539.2069702148438 532.8033447265625 538.9736328125 533.5499877929688 C 538.733642578125 534.2966918945312 538.376953125 535.2166748046875 537.9036254882812 536.3099975585938 C 537.4302978515625 537.4033203125 536.8469848632812 538.2966918945312 536.1536254882812 538.989990234375 C 535.4603271484375 539.683349609375 534.5836181640625 540.3599853515625 533.5236206054688 541.02001953125 C 532.4703369140625 541.67333984375 531.2503051757812 542.163330078125 529.8636474609375 542.489990234375 C 531.8703002929688 542.9633178710938 533.5836181640625 543.7833251953125 535.003662109375 544.9500122070312 C 536.4236450195312 546.1166381835938 537.5003051757812 547.3466796875 538.233642578125 548.6400146484375 C 538.9603271484375 549.9400024414062 539.5336303710938 551.5366821289062 539.95361328125 553.4299926757812 C 540.3736572265625 555.3233642578125 540.6203002929688 556.9099731445312 540.6936645507812 558.1900024414062 C 540.7669677734375 559.4633178710938 540.8036499023438 560.9933471679688 540.8036499023438 562.780029296875 C 540.8036499023438 567.3733520507812 540.483642578125 571.3099975585938 539.8436279296875 574.5900268554688 C 539.20361328125 577.8766479492188 538.1002807617188 580.8033447265625 536.5336303710938 583.3699951171875 C 534.9669799804688 585.943359375 532.790283203125 587.856689453125 530.003662109375 589.1099853515625 C 527.2103271484375 590.3699951171875 523.753662109375 591 519.6336669921875 591 L 493.55364990234375 591 M 512.3636474609375 550.260009765625 L 512.3636474609375 575.52001953125 C 513.2369995117188 575.5933227539062 513.8736572265625 575.6300048828125 514.2736206054688 575.6300048828125 C 519.2736206054688 575.6300048828125 521.7736206054688 573.47998046875 521.7736206054688 569.1799926757812 C 521.7736206054688 569.1799926757812 521.7736206054688 565.5533447265625 521.7736206054688 558.2999877929688 C 521.7736206054688 555.5266723632812 521.3069458007812 553.4933471679688 520.3736572265625 552.2000122070312 C 519.4469604492188 550.9066772460938 517.963623046875 550.260009765625 515.9236450195312 550.260009765625 L 512.3636474609375 550.260009765625 M 512.3636474609375 536.7000122070312 L 516.3036499023438 536.7000122070312 C 517.2503051757812 536.7000122070312 518.0236206054688 536.4966430664062 518.6236572265625 536.0900268554688 C 519.2236328125 535.6900024414062 519.6536254882812 535.1166381835938 519.9136352539062 534.3699951171875 C 520.1669921875 533.6233520507812 520.330322265625 532.9500122070312 520.4036254882812 532.3499755859375 C 520.4769897460938 531.75 520.5136108398438 531.030029296875 520.5136108398438 530.1900024414062 L 520.5136108398438 521.5499877929688 C 520.5136108398438 518.7766723632812 519.14697265625 517.3900146484375 516.4136352539062 517.3900146484375 L 512.3636474609375 517.3900146484375 L 512.3636474609375 536.7000122070312 ZM 547.5848999023438 591 L 547.5848999023438 503.8800048828125 L 566.1748657226562 503.8800048828125 L 566.1748657226562 591 L 547.5848999023438 591 ZM 614.4642333984375 591 L 611.1842651367188 583.6199951171875 C 607.757568359375 589.193359375 602.470947265625 591.97998046875 595.3242797851562 591.97998046875 C 581.430908203125 591.97998046875 574.4842529296875 582.9933471679688 574.4842529296875 565.02001953125 L 574.4842529296875 527.2899780273438 C 574.4842529296875 523.1699829101562 575.0342407226562 519.5800170898438 576.13427734375 516.52001953125 C 577.2276000976562 513.4533081054688 578.5642700195312 511.0899963378906 580.144287109375 509.42999267578125 C 581.73095703125 507.77667236328125 583.6742553710938 506.4566650390625 585.9742431640625 505.4700012207031 C 588.267578125 504.48333740234375 590.354248046875 503.85333251953125 592.2342529296875 503.58001708984375 C 594.1142578125 503.3066711425781 596.1475830078125 503.16998291015625 598.3342895507812 503.16998291015625 C 601.0342407226562 503.16998291015625 603.4776000976562 503.36334228515625 605.6642456054688 503.75 C 607.8509521484375 504.1300048828125 609.7376098632812 504.7200012207031 611.3242797851562 505.5199890136719 C 612.9109497070312 506.32666015625 614.3042602539062 507.2300109863281 615.5042724609375 508.2300109863281 C 616.7109375 509.2300109863281 617.7042846679688 510.4700012207031 618.4842529296875 511.95001220703125 C 619.2709350585938 513.42333984375 619.9075927734375 514.8800048828125 620.394287109375 516.3200073242188 C 620.8875732421875 517.760009765625 621.2642822265625 519.4933471679688 621.5242919921875 521.52001953125 C 621.777587890625 523.5399780273438 621.950927734375 525.4266357421875 622.0442504882812 527.1799926757812 C 622.1309204101562 528.9266357421875 622.1742553710938 530.9866943359375 622.1742553710938 533.3599853515625 L 603.8042602539062 533.3599853515625 L 603.8042602539062 526.469970703125 C 603.8042602539062 525.0833129882812 603.6575927734375 523.933349609375 603.3642578125 523.02001953125 C 603.0709228515625 522.1133422851562 602.6609497070312 521.4666748046875 602.13427734375 521.0800170898438 C 601.6076049804688 520.7000122070312 601.124267578125 520.4466552734375 600.6842651367188 520.3200073242188 C 600.2442626953125 520.1866455078125 599.7509155273438 520.1199951171875 599.2042846679688 520.1199951171875 C 598.1109619140625 520.1199951171875 597.2276000976562 520.2666625976562 596.5542602539062 520.5599975585938 C 595.8809204101562 520.8533325195312 595.354248046875 521.219970703125 594.9742431640625 521.6600341796875 C 594.5875854492188 522.0933227539062 594.3042602539062 522.8866577148438 594.124267578125 524.0399780273438 C 593.9376220703125 525.1866455078125 593.8275756835938 526.27001953125 593.7942504882812 527.2899780273438 C 593.7542724609375 528.3099975585938 593.7342529296875 529.913330078125 593.7342529296875 532.0999755859375 L 593.7342529296875 565.7899780273438 C 593.7342529296875 567.0633544921875 593.7809448242188 568.1400146484375 593.874267578125 569.02001953125 C 593.9675903320312 569.893310546875 594.1776123046875 570.8400268554688 594.5042724609375 571.8599853515625 C 594.8309326171875 572.8800048828125 595.3676147460938 573.6533203125 596.1142578125 574.1799926757812 C 596.8609619140625 574.7133178710938 597.817626953125 574.97998046875 598.9842529296875 574.97998046875 C 600.9176025390625 574.97998046875 602.2042846679688 574.2233276367188 602.84423828125 572.7100219726562 C 603.4842529296875 571.1966552734375 603.8042602539062 568.7433471679688 603.8042602539062 565.3499755859375 L 603.8042602539062 555.2899780273438 L 598.6642456054688 555.2899780273438 L 598.6642456054688 540.25 L 621.9542846679688 540.25 L 621.9542846679688 591 L 614.4642333984375 591 ZM 656.7958374023438 591 L 656.7958374023438 503.8800048828125 L 682.8758544921875 503.8800048828125 C 689.69580078125 503.8800048828125 694.745849609375 505.3833312988281 698.0258178710938 508.3900146484375 C 701.3058471679688 511.4033203125 702.94580078125 516.5366821289062 702.94580078125 523.7899780273438 C 702.94580078125 524.010009765625 702.94580078125 524.3200073242188 702.94580078125 524.719970703125 C 702.94580078125 525.9933471679688 702.94580078125 526.9400024414062 702.94580078125 527.5599975585938 C 702.94580078125 528.1799926757812 702.8825073242188 529.1466674804688 702.755859375 530.4600219726562 C 702.629150390625 531.7733154296875 702.4491577148438 532.8033447265625 702.2158203125 533.5499877929688 C 701.975830078125 534.2966918945312 701.619140625 535.2166748046875 701.1458129882812 536.3099975585938 C 700.6724853515625 537.4033203125 700.0891723632812 538.2966918945312 699.3958129882812 538.989990234375 C 698.7025146484375 539.683349609375 697.8258056640625 540.3599853515625 696.7658081054688 541.02001953125 C 695.7125244140625 541.67333984375 694.4924926757812 542.163330078125 693.1058349609375 542.489990234375 C 695.1124877929688 542.9633178710938 696.8258056640625 543.7833251953125 698.245849609375 544.9500122070312 C 699.6658325195312 546.1166381835938 700.7424926757812 547.3466796875 701.475830078125 548.6400146484375 C 702.2025146484375 549.9400024414062 702.7758178710938 551.5366821289062 703.19580078125 553.4299926757812 C 703.6158447265625 555.3233642578125 703.8624877929688 556.9099731445312 703.9358520507812 558.1900024414062 C 704.0091552734375 559.4633178710938 704.0458374023438 560.9933471679688 704.0458374023438 562.780029296875 C 704.0458374023438 567.3733520507812 703.725830078125 571.3099975585938 703.0858154296875 574.5900268554688 C 702.44580078125 577.8766479492188 701.3424682617188 580.8033447265625 699.7758178710938 583.3699951171875 C 698.2091674804688 585.943359375 696.032470703125 587.856689453125 693.245849609375 589.1099853515625 C 690.4525146484375 590.3699951171875 686.995849609375 591 682.8758544921875 591 L 656.7958374023438 591 M 675.6058349609375 550.260009765625 L 675.6058349609375 575.52001953125 C 676.4791870117188 575.5933227539062 677.1158447265625 575.6300048828125 677.5158081054688 575.6300048828125 C 682.5158081054688 575.6300048828125 685.0158081054688 573.47998046875 685.0158081054688 569.1799926757812 C 685.0158081054688 569.1799926757812 685.0158081054688 565.5533447265625 685.0158081054688 558.2999877929688 C 685.0158081054688 555.5266723632812 684.5491333007812 553.4933471679688 683.6158447265625 552.2000122070312 C 682.6891479492188 550.9066772460938 681.205810546875 550.260009765625 679.1658325195312 550.260009765625 L 675.6058349609375 550.260009765625 M 675.6058349609375 536.7000122070312 L 679.5458374023438 536.7000122070312 C 680.4924926757812 536.7000122070312 681.2658081054688 536.4966430664062 681.8658447265625 536.0900268554688 C 682.4658203125 535.6900024414062 682.8958129882812 535.1166381835938 683.1558227539062 534.3699951171875 C 683.4091796875 533.6233520507812 683.572509765625 532.9500122070312 683.6458129882812 532.3499755859375 C 683.7191772460938 531.75 683.7557983398438 531.030029296875 683.7557983398438 530.1900024414062 L 683.7557983398438 521.5499877929688 C 683.7557983398438 518.7766723632812 682.38916015625 517.3900146484375 679.6558227539062 517.3900146484375 L 675.6058349609375 517.3900146484375 L 675.6058349609375 536.7000122070312 ZM 710.8270874023438 591 L 710.8270874023438 503.8800048828125 L 730.0770874023438 503.8800048828125 L 730.0770874023438 573.989990234375 L 749.8670654296875 573.989990234375 L 749.8670654296875 591 L 710.8270874023438 591 ZM 754.7892456054688 567.9199829101562 L 754.7892456054688 503.8800048828125 L 773.499267578125 503.8800048828125 L 773.499267578125 566.22998046875 C 773.499267578125 566.3033447265625 773.499267578125 566.4299926757812 773.499267578125 566.6099853515625 C 773.499267578125 567.556640625 773.5059204101562 568.3033447265625 773.519287109375 568.8499755859375 C 773.5392456054688 569.3966674804688 773.632568359375 570.143310546875 773.7992553710938 571.0900268554688 C 773.9592895507812 572.0433349609375 774.1959228515625 572.7933349609375 774.50927734375 573.3400268554688 C 774.81591796875 573.8866577148438 775.2792358398438 574.3699951171875 775.8992919921875 574.7899780273438 C 776.519287109375 575.2033081054688 777.2859497070312 575.4099731445312 778.1992797851562 575.4099731445312 C 778.9659423828125 575.4099731445312 779.632568359375 575.2833251953125 780.1992797851562 575.030029296875 C 780.75927734375 574.7766723632812 781.2059326171875 574.3866577148438 781.5392456054688 573.8599853515625 C 781.8659057617188 573.32666015625 782.1292724609375 572.8133544921875 782.3292846679688 572.3200073242188 C 782.529296875 571.8333129882812 782.6659545898438 571.1799926757812 782.7392578125 570.3599853515625 C 782.8126220703125 569.5333251953125 782.8592529296875 568.9033203125 782.8792724609375 568.469970703125 C 782.892578125 568.030029296875 782.8992919921875 567.4099731445312 782.8992919921875 566.6099853515625 C 782.8992919921875 566.4299926757812 782.8992919921875 566.3033447265625 782.8992919921875 566.22998046875 L 782.8992919921875 503.8800048828125 L 801.6092529296875 503.8800048828125 L 801.6092529296875 567.9199829101562 C 801.6092529296875 575.7933349609375 799.7225952148438 581.7733154296875 795.9492797851562 585.8599853515625 C 792.1759033203125 589.9400024414062 786.2959594726562 591.9633178710938 778.3092651367188 591.9299926757812 C 770.1759033203125 591.9633178710938 764.2225952148438 589.9400024414062 760.4492797851562 585.8599853515625 C 756.6759033203125 581.7733154296875 754.7892456054688 575.7933349609375 754.7892456054688 567.9199829101562 ZM 810.8505249023438 591 L 810.8505249023438 503.8800048828125 L 849.3505249023438 503.8800048828125 L 849.3505249023438 520.780029296875 L 830.4305419921875 520.780029296875 L 830.4305419921875 537.7899780273438 L 848.5805053710938 537.7899780273438 L 848.5805053710938 554.1400146484375 L 830.4305419921875 554.1400146484375 L 830.4305419921875 573.989990234375 L 850.6105346679688 573.989990234375 L 850.6105346679688 591 L 810.8505249023438 591 Z" transform="matrix(1.3281848430633543, 0, 0, 1.3281848430633543, -303.80771168490094, -234.85931146951677)" style="fill: rgb(71, 71, 71); white-space: pre; color: rgb(71, 71, 71);"/><path d="M 409.84674072265625 359.2541198730469" style="fill: rgb(71, 71, 71); fill-opacity: 1; stroke: rgb(0, 0, 0); stroke-opacity: 1; stroke-width: 0; paint-order: fill;"/></g><path d=" M 2627.509 1589.565 L 2592.144 1647.706 C 2609.835 1652.698 2622.215 1646.997 2629.261 1630.603 C 2636.184 1613.549 2630.584 1588.962 2632.033 1579.397 L 2627.509 1589.565 Z " fill="rgb(60,196,220)" vector-effect="non-scaling-stroke" stroke-width="1" stroke="rgb(90,201,223)" stroke-linejoin="miter" stroke-linecap="square" stroke-miterlimit="3" transform="matrix(0.5470912456512451, 0.00657155504450202, -0.00657155504450202, 0.5470912456512451, -765.2779092788696, -184.32008457183838)" style="fill: rgb(0, 179, 219);"/><path d="M 712.8154907226562 705.741943359375" style="fill: rgb(60, 196, 220); fill-opacity: 1; stroke: rgb(90, 201, 223); stroke-opacity: 1; stroke-width: 1; paint-order: fill;" transform="matrix(0.9718555808067322, 0.235577791929245, -0.235577791929245, 0.9718555808067322, 171.11622524261475, -141.50189304351807)"/><path d="M 719.8889770507812 708.5713500976562" style="fill: rgb(60, 196, 220); fill-opacity: 1; stroke: rgb(90, 201, 223); stroke-opacity: 1; stroke-width: 1; paint-order: fill;" transform="matrix(0.9805426597595215, 0.19630643725395203, -0.19630643725395203, 0.9805426597595215, 139.35301113128662, -128.06074619293213)"/><path d=" M 2595.472 1554.752 L 2413.369 1573.777 C 2423.736 1607.993 2449.113 1620.083 2489.472 1610.017 C 2539.484 1591.176 2576.035 1572.764 2582.789 1563.811 L 2595.472 1554.752 Z " fill="rgb(60,196,220)" vector-effect="non-scaling-stroke" stroke-width="1" stroke="rgb(90,201,223)" stroke-linejoin="miter" stroke-linecap="square" stroke-miterlimit="3" transform="matrix(0.60534006357193, -0.25347030162811285, 0.25347030162811285, 0.60534006357193, -1375.5954087287896, 381.0621140510552)" style="fill: rgb(0, 179, 219);"/><path d=" M 2595.472 1554.752 L 2413.369 1573.777 C 2423.736 1607.993 2449.113 1620.083 2489.472 1610.017 C 2539.484 1591.176 2576.035 1572.764 2582.789 1563.811 L 2595.472 1554.752 Z " fill="rgb(60,196,220)" vector-effect="non-scaling-stroke" stroke-width="1" stroke="rgb(90,201,223)" stroke-linejoin="miter" stroke-linecap="square" stroke-miterlimit="3" transform="matrix(0.3876536786556244, -0.34090614318847656, 0.34090614318847656, 0.3876536786556244, -920.6548013687134, 952.7457418441772)" style="fill: rgb(0, 179, 219);"/></svg>