<svg width="1400" height="980" xmlns="http://www.w3.org/2000/svg" xmlns:svg="http://www.w3.org/2000/svg">
 <g>
  <title>Layer 1</title>
  <g id="svg_1" transform="matrix(1.2165186405181887,0,0,1.2165186405181887,180.92879262123074,-10.427710367011827) ">
   <rect fill="white" fill-opacity="0" height="332.5774" width="564.67726" id="ee-background" y="800.00001" x="443.82202"/>
   <g id="svg_2" transform="matrix(0.7863754630088806,-0.25068140029907227,0.25068140029907227,0.7863754630088806,-2073.3707885742188,-51.614593505859375) ">
    <g id="svg_3">
     <path id="svg_4" stroke-miterlimit="3" stroke-linecap="square" stroke="rgb(90,201,223)" fill="rgb(0, 179, 219)" d="m2478.20043,985.13787c-48.59572,84.42769 -41.71933,180.46436 20.60002,288.07709l37.61747,69.68249l44.65135,73.7554l24.19603,36.0812c0.88486,-16.23802 -2.6807,-35.36059 -10.72488,-57.3996l-31.50159,-97.37486l-35.07434,-111.86679l-27.72846,-100.71158l-22.03562,-100.24336l0.00002,0.00001z"/>
     <path id="svg_5" stroke-miterlimit="3" stroke-linecap="square" stroke="rgb(90,201,223)" fill="rgb(0, 179, 219)" d="m2389.43212,1160.83959c-48.03964,57.79412 1.73271,151.0356 149.17756,279.56366l46.12248,34.05891l-91.673,-147.19151l-90.69119,-148.01585l-12.93586,-18.41521l0.00001,0z"/>
     <path id="svg_6" stroke-miterlimit="3" stroke-linecap="square" stroke="rgb(90,201,223)" fill="rgb(0, 179, 219)" d="m2343.15161,1303.10309l8.74747,7.93878l216.92539,192.64894l-33.74779,-12.23649c-168.07365,-71.33859 -232.04057,-134.11046 -191.92507,-188.35123z"/>
     <path id="svg_7" stroke-miterlimit="3" stroke-linecap="square" stroke="rgb(0, 179, 219)" fill="rgb(0, 179, 219)" d="m2556.18464,1553.64846l-182.29103,-17.13177c3.44094,35.58612 25.94728,52.42732 67.49747,50.48871c52.73939,-8.64557 92.19593,-19.51579 100.57763,-26.96696l14.21593,-6.38998z"/>
     <path id="svg_8" stroke-miterlimit="3" stroke-linecap="square" stroke="rgb(90,201,223)" fill="rgb(0, 179, 219)" d="m2593.91715,1630.12161l-40.9343,30.29905c10.8492,8.45771 21.03909,8.00478 30.55375,-1.36529c9.61589,-9.86219 12.68185,-28.48283 16.38843,-34.70185l-6.00788,5.76809z"/>
     <path id="svg_9" stroke-miterlimit="3" stroke-linecap="square" stroke="rgb(90,201,223)" fill="rgb(0, 179, 219)" d="m2535.94705,1527.17895c-42.79849,-5.07869 -133.96113,-18.55357 -170.15162,-26.6311c-32.34803,-11.3111 -44.62235,-35.75021 -36.84707,-73.35139l205.45691,88.62752l24.47062,12.00199c-0.56264,0.00458 -9.40458,0.95788 -22.92884,-0.64702z"/>
     <path id="svg_10" fill="rgb(60, 196, 220)" stroke="rgb(90, 201, 223)" d="m2714.91936,1194.12781"/>
     <path id="svg_11" fill="rgb(0, 179, 219)" stroke="rgb(90, 201, 223)" d="m2680.48552,1218.6427"/>
    </g>
   </g>
   <path id="svg_12" fill="#7f7f7f" d="m354.54479,550.23034l0,-103.93981l33.83563,0c8.84804,0 15.39986,1.79357 19.65522,5.38074c4.25544,3.59507 6.38307,9.7195 6.38307,18.37317c0,0.26251 0,0.63236 0,1.10954c0,1.51922 0,2.64864 0,3.38834c0,0.73969 -0.08211,1.893 -0.24643,3.45991c-0.16439,1.56686 -0.3979,2.79573 -0.70063,3.68653c-0.31136,0.89087 -0.77412,1.98846 -1.3882,3.29287c-0.61409,1.3044 -1.37088,2.37025 -2.27041,3.1974c-0.89947,0.82722 -2.03689,1.6345 -3.41212,2.42196c-1.3665,0.77945 -2.94935,1.36405 -4.74837,1.75377c2.60338,0.56471 4.82621,1.54303 6.66853,2.93496c1.84226,1.39187 3.23909,2.85938 4.1905,4.40241c0.94279,1.55098 1.68658,3.45591 2.23145,5.71476c0.54496,2.25892 0.86495,4.15184 0.96012,5.679c0.09511,1.51915 0.1427,3.34458 0.1427,5.47621c0,5.48013 -0.41517,10.17681 -1.2455,14.09009c-0.83034,3.92115 -2.26178,7.41288 -4.29432,10.47507c-2.03254,3.07019 -4.85654,5.35291 -8.47184,6.84818c-3.624,1.50328 -8.10861,2.2549 -13.45379,2.2549l-33.83563,0m24.40367,-48.60545l0,30.13683c1.13306,0.08746 1.95905,0.13121 2.47795,0.13121c6.48688,0 9.73033,-2.56511 9.73033,-7.69528c0,0 0,-4.32683 0,-12.98054c0,-3.30875 -0.60544,-5.73464 -1.81628,-7.27767c-1.20228,-1.54303 -3.12673,-2.31455 -5.77335,-2.31455l-4.61867,0m0,-16.17796l5.11167,0c1.22818,0 2.23145,-0.24263 3.00993,-0.72775c0.77839,-0.47726 1.33626,-1.16132 1.67359,-2.05211c0.32869,-0.8908 0.54059,-1.69414 0.6357,-2.41001c0.09518,-0.71581 0.14268,-1.57479 0.14268,-2.57699l0,-10.30809c0,-3.30875 -1.77305,-4.96312 -5.31921,-4.96312l-5.25437,0l0,23.03808l0.00001,0l0,-0.00001zm45.69525,64.78341l0,-103.93981l24.11821,0l0,103.93981l-24.11821,0zm86.76773,0l-4.25534,-8.80482c-4.44572,6.64938 -11.30446,9.974 -20.57639,9.974c-18.02494,0 -27.03738,-10.72164 -27.03738,-32.16498l0,-45.01439c0,-4.91543 0.71355,-9.19848 2.14071,-12.84926c1.41845,-3.65879 3.15262,-6.47837 5.20249,-8.45887c2.05851,-1.97251 4.5797,-3.54736 7.56364,-4.72453c2.97533,-1.17715 5.68252,-1.9288 8.1216,-2.25487c2.43908,-0.32612 5.07707,-0.48921 7.91405,-0.48921c3.50285,0 6.67282,0.23069 9.50972,0.692c2.83697,0.45336 5.28469,1.15727 7.3432,2.11171c2.05851,0.96241 3.86615,2.04016 5.42303,3.23323c1.56551,1.19306 2.85424,2.67245 3.86615,4.4382c1.02063,1.75777 1.84661,3.49567 2.47805,5.2137c0.63997,1.71802 1.12871,3.786 1.46604,6.20395c0.32863,2.40994 0.55352,4.66085 0.67458,6.75271c0.11244,2.08386 0.16867,4.54164 0.16867,7.37314l-23.83283,0l0,-8.22024c0,-1.65437 -0.19028,-3.02635 -0.57084,-4.11601c-0.38057,-1.08173 -0.91246,-1.85325 -1.59575,-2.31455c-0.6833,-0.45337 -1.31036,-0.75564 -1.88121,-0.90674c-0.57085,-0.15911 -1.21091,-0.23862 -1.92011,-0.23862c-1.41845,0 -2.5645,0.17497 -3.43808,0.52495c-0.87358,0.34996 -1.55687,0.78739 -2.04988,1.3124c-0.50163,0.51694 -0.86922,1.46345 -1.10273,2.83943c-0.24216,1.36805 -0.38492,2.66059 -0.42816,3.87746c-0.05187,1.21695 -0.07784,3.12982 -0.07784,5.73864l0,40.19436c0,1.51921 0.06057,2.80373 0.18166,3.85365c0.12107,1.04189 0.39354,2.17139 0.81735,3.38827c0.4238,1.21694 1.12008,2.13956 2.08876,2.76791c0.96876,0.6363 2.20991,0.95444 3.72346,0.95444c2.50829,0 4.1776,-0.90273 5.00786,-2.70821c0.83033,-1.80554 1.2455,-4.73249 1.2455,-8.781l0,-12.00223l-6.66853,0l0,-17.94367l30.21595,0l0,60.54804l-9.71742,0l0.00002,0l0,0.00001zm54.92007,0l0,-103.93981l33.83561,0c8.84804,0 15.39987,1.79357 19.65523,5.38074c4.25544,3.59507 6.38307,9.7195 6.38307,18.37317c0,0.26251 0,0.63236 0,1.10954c0,1.51922 0,2.64864 0,3.38834c0,0.73969 -0.08211,1.893 -0.24643,3.45991c-0.16439,1.56686 -0.3979,2.79573 -0.70063,3.68653c-0.31136,0.89087 -0.77412,1.98846 -1.38821,3.29287c-0.61408,1.3044 -1.37086,2.37025 -2.27041,3.1974c-0.89947,0.82722 -2.03688,1.6345 -3.41211,2.42196c-1.36651,0.77945 -2.94935,1.36405 -4.74838,1.75377c2.6034,0.56471 4.82622,1.54303 6.66855,2.93496c1.84225,1.39187 3.23908,2.85938 4.1905,4.40241c0.94278,1.55098 1.68658,3.45591 2.23145,5.71476c0.54495,2.25892 0.86495,4.15184 0.96012,5.679c0.09511,1.51915 0.1427,3.34458 0.1427,5.47621c0,5.48013 -0.41517,10.17681 -1.2455,14.09009c-0.83034,3.92115 -2.26178,7.41288 -4.29432,10.47507c-2.03254,3.07019 -4.85654,5.35291 -8.47184,6.84818c-3.62401,1.50328 -8.10861,2.2549 -13.45381,2.2549l-33.83561,0m24.40365,-48.60545l0,30.13683c1.13307,0.08746 1.95905,0.13121 2.47797,0.13121c6.48688,0 9.73033,-2.56511 9.73033,-7.69528c0,0 0,-4.32683 0,-12.98054c0,-3.30875 -0.60546,-5.73464 -1.81629,-7.27767c-1.20227,-1.54303 -3.12672,-2.31455 -5.77335,-2.31455l-4.61867,0m0,-16.17796l5.11168,0c1.22817,0 2.23145,-0.24263 3.00992,-0.72775c0.7784,-0.47726 1.33626,-1.16132 1.67359,-2.05211c0.3287,-0.8908 0.5406,-1.69414 0.6357,-2.41001c0.09519,-0.71581 0.1427,-1.57479 0.1427,-2.57699l0,-10.30809c0,-3.30875 -1.77305,-4.96312 -5.31922,-4.96312l-5.25437,0l0,23.03808l0,-0.00001zm45.69526,64.78341l0,-103.93981l24.97452,0l0,83.64577l25.67507,0l0,20.29405l-50.64959,0l0,-0.00001zm57.03551,-27.53596l0,-76.40385l24.27395,0l0,74.38757c0,0.08753 0,0.23862 0,0.45337c0,1.12942 0.00863,2.02027 0.02597,2.67245c0.0259,0.65224 0.14697,1.54303 0.36322,2.67252c0.20762,1.13735 0.51462,2.03215 0.92117,2.6844c0.39782,0.65217 0.99893,1.22882 1.80337,1.72988c0.80437,0.49313 1.79902,0.73969 2.98395,0.73969c0.99465,0 1.85951,-0.15109 2.59476,-0.45329c0.72653,-0.30228 1.30601,-0.76758 1.73845,-1.39593c0.4238,-0.6363 0.76548,-1.24871 1.02497,-1.8373c0.2595,-0.58067 0.43679,-1.36012 0.5319,-2.33843c0.09518,-0.98626 0.15567,-1.7379 0.18165,-2.25492c0.01727,-0.52488 0.02597,-1.26465 0.02597,-2.21908c0,-0.21475 0,-0.36586 0,-0.45337l0,-74.38757l24.27388,0l0,76.40385c0,9.39341 -2.4477,16.52794 -7.34312,21.4036c-4.8955,4.86772 -12.524,7.28167 -22.88575,7.2419c-10.55205,0.03977 -18.27573,-2.37418 -23.17115,-7.2419c-4.8955,-4.87566 -7.3432,-12.01018 -7.3432,-21.4036l0,0.00001l0.00001,0zm72.73263,27.53596l0,-103.93981l49.94903,0l0,20.16283l-24.54635,0l0,20.29398l23.54737,0l0,19.50664l-23.54737,0l0,23.68231l26.18107,0l0,20.29405l-51.58374,0l-0.00001,0z"/>
   <path id="svg_13" fill="rgb(71, 71, 71)" stroke="rgb(0, 0, 0)" stroke-width="0" d="m410.66876,359.25412"/>
  </g>
  <path id="svg_14" stroke-miterlimit="3" stroke-linecap="square" stroke="rgb(90,201,223)" fill="rgb(0, 179, 219)" d="m661.76335,702.58383l-19.72996,31.57603c9.64579,2.84734 16.45624,-0.19027 20.41878,-9.11299c3.89958,-9.2846 0.99745,-22.77273 1.85304,-27.99614l-2.54186,5.53309l0,0.00001z"/>
  <path id="svg_15" fill="rgb(60, 196, 220)" stroke="rgb(90, 201, 223)" d="m697.61281,712.30085"/>
  <path id="svg_16" fill="rgb(60, 196, 220)" stroke="rgb(90, 201, 223)" d="m706.13775,708.04253"/>
  <path id="svg_17" stroke-miterlimit="3" stroke-linecap="square" stroke="rgb(90,201,223)" fill="rgb(0, 179, 219)" d="m589.63124,664.34072l-105.41197,57.6743c14.9483,18.08459 33.37447,18.97083 55.25396,2.64767c25.49863,-24.08177 42.95752,-44.49188 44.77667,-51.62343l5.38134,-8.69854z"/>
  <path id="svg_18" stroke-miterlimit="3" stroke-linecap="square" stroke="rgb(90,201,223)" fill="rgb(0, 179, 219)" d="m615.51398,670.63872l-64.10716,69.45514c15.68325,9.72978 29.64229,5.76534 41.85605,-11.89541c12.96432,-24.35318 20.85669,-43.95112 20.42277,-49.72426l1.82834,-7.83547z"/>
 </g>
</svg>