<svg xmlns="http://www.w3.org/2000/svg" width="1020.268" height="980.001" viewBox="0 0 1020.268 980.001"><g transform="translate(-456.882 -50)"><g transform="translate(456.882 50)"><rect width="1020.268" height="980.001" fill="rgba(255,255,255,0)"/><g transform="translate(-2522.297 -62.79) rotate(-17.681)"><path d="M2480.221,1019.333q-65.282,131.394,38.325,287.446l41.977,67.527,49.276,71.177,26.464,34.676q-.165-24.492-14.271-56.868l-37.547-95.656-42.017-109.96-33.97-99.231Z" transform="translate(74.067 -180.182) rotate(3.505)" fill="#407ec1" stroke="#407ec1" stroke-linecap="square" stroke-miterlimit="3" stroke-width="1.007"/><path d="M2386.927,1195.288q-64.468,93.036,173.748,266.536l49.123,30.019-104.613-139.18-103.7-140.091Z" transform="matrix(0.996, 0.087, -0.087, 0.996, 124.905, -234.087)" fill="#407ec1" stroke="#407ec1" stroke-linecap="square" stroke-miterlimit="3" stroke-width="1.004"/><path d="M2346.037,1349.094l10.006,6.368L2603.476,1509.2,2568,1502.83Q2300.318,1439.826,2346.037,1349.094Z" transform="translate(268.187 -418.955) rotate(9.754)" fill="#407ec1" stroke="#407ec1" stroke-linecap="square" stroke-miterlimit="3" stroke-width="1.004"/><path d="M2606.052,1561.089l-182.845,19.1q15.614,51.533,76.413,36.388c50.216-18.918,86.916-37.4,93.7-46.394Z" transform="translate(317.189 -483.1) rotate(11.333)" fill="#407ec1" stroke="#407ec1" stroke-linecap="square" stroke-miterlimit="3" stroke-width="1.004"/><path d="M1974.369,1194.435l-26.574,43.688q19.94,5.627,27.891-12.852c5.2-12.815.994-31.29,2.083-38.477Z" transform="translate(1226.229 -214.963) rotate(22.181)" fill="#407ec1" stroke="#407ec1" stroke-linecap="square" stroke-miterlimit="3" stroke-width="0.751"/><path d="M2577.969,1541.043c-43.172,2.971-135.627,6.678-172.839,5.458q-51.037-7.69-50.033-65.5l219.233,49.124,26.381,7.278A116.383,116.383,0,0,1,2577.969,1541.043Z" transform="translate(298.456 -459.954) rotate(10.704)" fill="#407ec1" stroke="#407ec1" stroke-linecap="square" stroke-miterlimit="3" stroke-width="1.004"/><path d="M2725.038,1198.694" fill="#3cc4dc" stroke="#5ac9df" stroke-width="1.004"/><path d="M2690.464,1223.309" fill="#00b3db" stroke="#5ac9df" stroke-width="1.004"/></g><path d="M797.463,954.913V814.148H839.6q16.529,0,24.479,7.287,7.95,7.3,7.95,24.883v6.091q0,1.5-.307,4.686a25.79,25.79,0,0,1-.872,4.993q-.582,1.81-1.729,4.459a13.781,13.781,0,0,1-2.828,4.33,23.725,23.725,0,0,1-4.25,3.28,19.708,19.708,0,0,1-5.914,2.375,20.152,20.152,0,0,1,8.3,3.975,21.7,21.7,0,0,1,5.219,5.962,28.54,28.54,0,0,1,2.779,7.739,49.875,49.875,0,0,1,1.2,7.691q.178,3.086.178,7.416a101.17,101.17,0,0,1-1.551,19.082,42.6,42.6,0,0,1-5.348,14.186,23.2,23.2,0,0,1-10.551,9.274q-6.77,3.054-16.755,3.054H797.463m30.392-65.826V929.9q2.117.178,3.086.178,12.118,0,12.118-10.422V902.077q0-6.721-2.262-9.856-2.246-3.135-7.19-3.135h-5.752m0-21.91h6.366a6.552,6.552,0,0,0,3.749-.986,5.33,5.33,0,0,0,2.084-2.779,16.543,16.543,0,0,0,.792-3.264,29.3,29.3,0,0,0,.178-3.49V842.7q0-6.722-6.625-6.721h-6.544Zm56.909,87.736V814.148H914.8V954.913Zm108.061,0-5.3-11.924Q979.22,956.5,961.9,956.5q-33.672,0-33.672-43.561V851.973a51.43,51.43,0,0,1,2.666-17.4,32.1,32.1,0,0,1,6.479-11.456,28.368,28.368,0,0,1,9.42-6.4,40.853,40.853,0,0,1,10.115-3.054,74.54,74.54,0,0,1,21.7.275,32.736,32.736,0,0,1,9.145,2.86,35.948,35.948,0,0,1,6.754,4.379,19.512,19.512,0,0,1,4.815,6.011,46.9,46.9,0,0,1,3.086,7.061,43.132,43.132,0,0,1,1.826,8.4q.614,4.9.84,9.145.21,4.233.21,9.985H975.6V850.648a18.515,18.515,0,0,0-.711-5.574,6.06,6.06,0,0,0-1.987-3.135,7.83,7.83,0,0,0-2.343-1.228,8.229,8.229,0,0,0-2.391-.323,10.849,10.849,0,0,0-4.282.711,6.993,6.993,0,0,0-2.553,1.777,7.759,7.759,0,0,0-1.373,3.845,41.115,41.115,0,0,0-.533,5.251q-.1,2.472-.1,7.772v54.435a50.662,50.662,0,0,0,.226,5.219,23.254,23.254,0,0,0,1.018,4.589,7.035,7.035,0,0,0,2.6,3.749,7.79,7.79,0,0,0,4.637,1.293q4.686,0,6.237-3.668t1.551-11.892V897.214h-8.3v-24.3h37.631v82Zm68.4,0V814.148h42.139q16.529,0,24.479,7.287,7.95,7.3,7.95,24.883v6.091q0,1.5-.307,4.686a25.789,25.789,0,0,1-.873,4.993q-.582,1.81-1.729,4.459a13.781,13.781,0,0,1-2.828,4.33,23.719,23.719,0,0,1-4.25,3.28,19.708,19.708,0,0,1-5.914,2.375,20.153,20.153,0,0,1,8.305,3.975,21.7,21.7,0,0,1,5.219,5.962,28.542,28.542,0,0,1,2.779,7.739,49.882,49.882,0,0,1,1.2,7.691q.178,3.086.178,7.416a101.171,101.171,0,0,1-1.551,19.082,42.6,42.6,0,0,1-5.348,14.186,23.2,23.2,0,0,1-10.551,9.274q-6.77,3.054-16.755,3.054h-42.139m30.392-65.826V929.9q2.117.178,3.086.178,12.118,0,12.118-10.422V902.077q0-6.721-2.262-9.856-2.246-3.135-7.19-3.135h-5.752m0-21.91h6.366a6.552,6.552,0,0,0,3.749-.986,5.329,5.329,0,0,0,2.084-2.779,16.542,16.542,0,0,0,.792-3.264,29.275,29.275,0,0,0,.178-3.49V842.7q0-6.722-6.625-6.721h-6.544Zm56.909,87.736V814.148h31.1V927.429H1211.6v27.484Zm71.032-37.292V814.148h30.231V915.5q0,2.294.032,3.619a28.084,28.084,0,0,0,.452,3.619,11.112,11.112,0,0,0,1.147,3.635,7,7,0,0,0,2.246,2.343,6.553,6.553,0,0,0,3.716,1,7.862,7.862,0,0,0,3.231-.614,4.908,4.908,0,0,0,2.165-1.891,17.082,17.082,0,0,0,1.276-2.488,11.147,11.147,0,0,0,.662-3.167q.178-2,.226-3.054.032-1.066.032-3.005V814.148h30.231V917.621q0,19.082-9.145,28.987-9.145,9.889-28.5,9.808-19.712.081-28.857-9.808Q1219.556,936.7,1219.556,917.621Zm90.581,37.292V814.148h62.207v27.306h-30.57v27.484H1371.1v26.418h-29.326v32.073h32.606v27.484Z" transform="translate(-369.588 -285.711)"/><path d="M498.587,437.04" fill="#474747" stroke="#000" stroke-width="0"/></g><path d="M1437.588,869.7l-19.349,31.811q14.519,4.1,20.308-9.358c3.788-9.331.724-22.783,1.517-28.016Z" transform="translate(-489.325 -123.892) rotate(0.688)" fill="#407ec1" stroke="#407ec1" stroke-linecap="square" stroke-miterlimit="3" stroke-width="0.547"/><path d="M712.815,705.742" transform="matrix(0.972, 0.236, -0.236, 0.972, 447.069, -81.074)" fill="#3cc4dc" stroke="#5ac9df" stroke-width="1"/><path d="M719.889,708.571" transform="matrix(0.981, 0.196, -0.196, 0.981, 415.306, -67.633)" fill="#3cc4dc" stroke="#5ac9df" stroke-width="1"/><path d="M1703.317,1020.329l-119.508,12.485q10.205,33.682,49.944,23.783c32.821-12.365,56.808-24.448,61.241-30.323Z" transform="translate(-1099.642 441.49) rotate(-22.72)" fill="#407ec1" stroke="#407ec1" stroke-linecap="square" stroke-miterlimit="3" stroke-width="0.656"/><path d="M1339.857,802.608l-94.007,9.821q8.028,26.495,39.287,18.708c25.818-9.726,44.686-19.231,48.173-23.853Z" transform="matrix(0.751, -0.66, 0.66, 0.751, -644.702, 1013.173)" fill="#407ec1" stroke="#407ec1" stroke-linecap="square" stroke-miterlimit="3" stroke-width="0.516"/></g></svg>